<?xml version="1.0" encoding="utf-8"?>
<!-- Generator: Adobe Illustrator 23.0.1, SVG Export Plug-In . SVG Version: 6.00 Build 0)  -->
<svg version="1.1" xmlns="http://www.w3.org/2000/svg" xmlns:xlink="http://www.w3.org/1999/xlink" x="0px" y="0px"
	 viewBox="0 0 340.5 108.2" style="enable-background:new 0 0 340.5 108.2;" xml:space="preserve">
<style type="text/css">
	.st0{display:none;}
	.st1{display:inline;fill:#FFFFFF;}
	.st2{fill:none;}
	.st3{fill:#E3A645;}
	.st4{fill:#D0665B;}
	.st5{fill:#9ACCE5;}
	.st6{fill:#434043;}
	.st7{font-family:'Roboto-BlackItalic';}
	.st8{font-size:35.6473px;}
	.st9{font-family:'Roboto-Medium';}
	.st10{fill:none;stroke:#434043;stroke-width:0.7717;stroke-linecap:round;stroke-linejoin:round;stroke-miterlimit:10;}
</style>
<g id="BACKGROUND" class="st0">
	<rect x="-115.6" y="-188.4" class="st1" width="500" height="500"/>
</g>
<g id="OBJECTS">
	<g>
		<g>
			<path class="st2" d="M27,34.3c1.3,2.4,2.5,4.9,3.8,7.5c0.7,1.3,1.3,2.7,2,4h1.8c-1.9-3.6-3.8-7.7-5.5-11.5H27z"/>
			<path class="st2" d="M89.3,50.3c0-0.1,0.1-0.3,0.1-0.4c0.1-0.3,0.1-0.7,0.2-1.1h-4.4c-0.1,0.6-0.3,1-0.4,1.2
				c-1.4,2.4-36.8,7.7-42.4,6.2c-1.7-0.4-3.8-3.4-6.1-7.5h-1.9c3.5,6.6,7,11.9,10.6,11.9c13.4,0,39.9-4.5,43.5-8.1
				C88.8,52.2,89.1,51.4,89.3,50.3z"/>
			<path class="st2" d="M85.7,45.7H90c0.2-1.8,0.3-3.8,0.4-5.6c0.1-1.9,0.2-3.9,0.4-5.8h-3.9C86.6,38.2,86.2,42.5,85.7,45.7z"/>
			<path class="st3" d="M29.1,34.3c1.8,3.8,3.7,7.8,5.5,11.5h51.1c0.5-3.2,0.9-7.5,1.2-11.5H29.1z"/>
			<path class="st4" d="M87.5,23.5H25.4c0.7,1.4,1.4,2.9,2.2,4.6h59.6C87.3,26.2,87.4,24.6,87.5,23.5z"/>
			<path class="st5" d="M42.4,57.5c5.6,1.4,41-3.9,42.4-6.2c0.1-0.2,0.3-0.7,0.4-1.2H36.3C38.5,54.1,40.7,57.1,42.4,57.5z"/>
			<path class="st6" d="M98.9,18.3c-5.1,0-6.9,5.9-7.8,12.9h-4H27.6h-2.3c-4.6-8.1-9.7-14.4-16.4-14.4c-0.9,0-1.5,0.7-1.5,1.5
				c0,0.9,0.7,1.5,1.5,1.5c4.7,0,8.9,5,12.8,11.4h-0.6c-0.9,0-1.5,0.7-1.5,1.5c0,0.9,0.7,1.5,1.5,1.5h2.3c1.6,2.9,3.1,5.9,4.5,8.8
				c0.4,0.9,0.9,1.8,1.3,2.6h-0.5c-0.9,0-1.5,0.7-1.5,1.5c0,0.9,0.7,1.5,1.5,1.5h2.1c4.4,8.5,8.6,14.9,14.1,14.9
				c9.5,0,29.3-2.6,39.7-6c-7.6,6.6-22.6,9.5-34.3,11.8C39,71.7,33.6,73,33,76.2c-0.2,1,0.1,1.9,0.8,2.7c1.8,2,6.3,2.3,8.9,2.3V83
				c-1.5,0.6-2.6,2.1-2.6,3.8c0,2.3,1.9,4.1,4.1,4.1c2.3,0,4.1-1.9,4.1-4.1c0-1.7-1.1-3.2-2.6-3.8v-1.9h34V83
				c-1.5,0.6-2.6,2.1-2.6,3.8c0,2.3,1.9,4.1,4.1,4.1c2.3,0,4.1-1.9,4.1-4.1c0-1.7-1.1-3.2-2.6-3.8v-1.9h8.1c0.9,0,1.5-0.7,1.5-1.5
				c0-0.9-0.7-1.5-1.5-1.5l-9.6,0c0,0,0,0,0,0c0,0,0,0,0,0l-37.1,0c0,0,0,0,0,0c0,0,0,0,0,0h-0.1c-4.1,0.2-7.8-0.5-8.1-1.3
				c0.7-1.4,8.9-3,14.9-4.2c16.4-3.2,38.8-7.6,41.4-21.9c0-0.1,0-0.2,0.1-0.2c0,0,0-0.1,0-0.1c0,0,0,0,0,0c0.1-0.4,0.2-0.9,0.2-1.4
				h1.3c0.9,0,1.5-0.7,1.5-1.5c0-0.9-0.7-1.5-1.5-1.5h-1c0.1-1.6,0.3-3.4,0.4-5.4c0.1-1.9,0.3-4,0.4-6H95c0.9,0,1.5-0.7,1.5-1.5
				c0-0.9-0.7-1.5-1.5-1.5h-0.7c0.7-5.3,2-9.8,4.7-9.8c0.9,0,1.5-0.7,1.5-1.5C100.5,19,99.8,18.3,98.9,18.3z M34.4,48.8h1.9h48.9
				h4.4c-0.1,0.4-0.1,0.8-0.2,1.1c0,0.1-0.1,0.3-0.1,0.4c-0.2,1.1-0.5,1.9-0.9,2.3c-3.6,3.6-30,8.1-43.5,8.1
				C41.4,60.7,37.9,55.4,34.4,48.8z M90.4,40.1c-0.1,1.8-0.2,3.8-0.4,5.6h-4.2H34.6h-1.8c-0.7-1.3-1.3-2.7-2-4
				c-1.2-2.5-2.5-5-3.8-7.5h2.1h57.9h3.9C90.6,36.2,90.5,38.2,90.4,40.1z"/>
		</g>
		<g>
			<g>
				<text transform="matrix(1 0 0 1 123.1611 54.7263)" class="st6 st7 st8">Реактивный</text>
				<text transform="matrix(1 0 0 1 123.1601 84.3254)" class="st3 st9 st8">шоппинг</text>
			</g>
			<line class="st10" x1="109.7" y1="28.2" x2="109.7" y2="83"/>
		</g>
	</g>
</g>
</svg>
